<svg xmlns="http://www.w3.org/2000/svg" width="640" height="420" viewBox="0 0 640 420" role="img" aria-label="Молочные продукты">
  <defs>
    <linearGradient id="bg" x1="0" y1="0" x2="1" y2="1">
      <stop offset="0" stop-color="#f8fafc"/>
      <stop offset="1" stop-color="#e0f2fe"/>
    </linearGradient>
    <linearGradient id="accent" x1="0" y1="0" x2="1" y2="1">
      <stop offset="0" stop-color="#0ea5e9" stop-opacity=".95"/>
      <stop offset="1" stop-color="#ffffff" stop-opacity=".18"/>
    </linearGradient>
    <filter id="shadow" x="-30%" y="-30%" width="160%" height="170%">
      <feDropShadow dx="0" dy="18" stdDeviation="18" flood-color="#111827" flood-opacity=".18"/>
    </filter>
    <filter id="softShadow" x="-30%" y="-30%" width="160%" height="170%">
      <feDropShadow dx="0" dy="10" stdDeviation="10" flood-color="#111827" flood-opacity=".14"/>
    </filter>
    <radialGradient id="shine" cx="35%" cy="20%" r="70%">
      <stop offset="0" stop-color="#ffffff" stop-opacity=".85"/>
      <stop offset="1" stop-color="#ffffff" stop-opacity="0"/>
    </radialGradient>
  </defs>
  <rect width="640" height="420" rx="46" fill="url(#bg)"/>
  <circle cx="520" cy="80" r="128" fill="url(#shine)" opacity=".7"/>
  <circle cx="100" cy="360" r="118" fill="#ffffff" opacity=".55"/>
  <path d="M0 330 C120 260 230 382 336 314 C440 248 505 292 640 244 L640 420 L0 420 Z" fill="#ffffff" opacity=".46"/>
  
  <ellipse cx="322" cy="332" rx="174" ry="28" fill="#111827" opacity=".10"/>
  <g filter="url(#shadow)">
    <path d="M214 154 L292 118 L378 154 V318 H214 Z" fill="#f8fafc"/>
    <path d="M292 118 L378 154 L310 190 L214 154 Z" fill="#e0f2fe"/>
    <rect x="248" y="206" width="96" height="72" rx="18" fill="#38bdf8" opacity=".8"/>
    <circle cx="296" cy="242" r="20" fill="#ffffff"/>
  </g>
  <g filter="url(#softShadow)">
    <path d="M410 236 l64 24 -36 58 -64-24z" fill="#facc15"/>
    <circle cx="416" cy="266" r="8" fill="#fde68a"/>
  </g>
</svg>